<svg width="300" height="300" xmlns="http://www.w3.org/2000/svg">

 <g>
  <title>background</title>
  <rect fill="none" id="canvas_background" height="402" width="582" y="-1" x="-1"/>
 </g>
 <g>
  <title>Layer 1</title>
  <path stroke="null" id="svg_2" fill="#ebe1f7" d="m151.88665,28.77729c-66.0041,0 -119.50639,53.99863 -119.50639,120.60668c0,66.60716 53.50229,120.61024 119.50639,120.61024c66.00146,0 119.51257,-54.00308 119.51257,-120.61024c0,-66.60716 -53.51111,-120.60668 -119.51257,-120.60668zm0,224.15765c-56.66988,0 -102.61195,-46.36369 -102.61195,-103.55097s45.94207,-103.55185 102.61195,-103.55185c56.67077,0 102.60578,46.36368 102.60578,103.55185s-45.93501,103.55097 -102.60578,103.55097z"/>
  <circle id="svg_3" r="104.744" fill="#eee6f7" cy="149.932" cx="151.341"/>
  <polygon transform="rotate(179.99497985839844 143.1168670654297,148.28727722167972) " id="svg_4" points="176.67936396598816,125.73128044605255 177.39936518669128,125.73128044605255 177.39936518669128,126.15428459644318 216.02135920524597,148.5842925310135 177.39936518669128,170.7422820329666 177.39936518669128,170.8462859392166 177.20235896110535,170.8462859392166 133.96436762809753,195.6552916765213 133.96436762809753,170.8462859392166 70.21236872673035,170.8462859392166 70.21236872673035,125.72427666187286 133.96436762809753,125.72427666187286 133.96436762809753,100.91927635669708 " fill="#FFFFFF"/>
 </g>
</svg>