<svg width="300" height="300" xmlns="http://www.w3.org/2000/svg">

 <g>
  <title>background</title>
  <rect fill="none" id="canvas_background" height="402" width="582" y="-1" x="-1"/>
 </g>
 <g>
  <title>Layer 1</title>
  <path id="svg_2" fill="#eee6f7" d="m151.121,14.934c-74.557,0 -134.996,60.439 -134.996,135c0,74.553 60.439,135 134.996,135c74.561,0 135.004,-60.447 135.004,-135c0,-74.561 -60.443,-135 -135.004,-135zm0,250.909c-64.013,0 -115.91,-51.9 -115.91,-115.909c0,-64.016 51.897,-115.906 115.91,-115.906c64.018,0 115.909,51.89 115.909,115.906c0,64.008 -51.891,115.909 -115.909,115.909z"/>
  <circle id="svg_3" r="104.43" fill="#eee6f7" cy="149.934" cx="151.127"/>
  <polygon id="svg_4" points="160.254,102.705 160.254,127.442 223.81,127.442 223.81,172.429 160.254,172.429 160.254,197.166    117.144,172.429 116.951,172.429 116.951,172.321 78.446,150.23 116.951,127.864 116.951,127.45 117.668,127.45  " fill="#FFFFFF"/>
 </g>
</svg>