<svg width="300" height="300" xmlns="http://www.w3.org/2000/svg">

 <g>
  <title>background</title>
  <rect fill="none" id="canvas_background" height="402" width="582" y="-1" x="-1"/>
 </g>
 <g>
  <title>Layer 1</title>
  <path id="svg_2" fill="#eee6f7" d="m151.338,14.523c-74.785,0 -135.405,60.626 -135.405,135.409c0,74.782 60.62,135.413 135.405,135.413c74.782,0 135.412,-60.631 135.412,-135.413c0,-74.782 -60.63,-135.409 -135.412,-135.409zm0,251.669c-64.209,0 -116.263,-52.054 -116.263,-116.26s52.054,-116.261 116.263,-116.261c64.21,0 116.256,52.054 116.256,116.261s-52.046,116.26 -116.256,116.26z"/>
  <circle id="svg_3" r="104.744" fill="#eee6f7" cy="149.932" cx="151.341"/>
  <polygon id="svg_4" points="184.903,127.376 185.623,127.376 185.623,127.799 224.245,150.229 185.623,172.387    185.623,172.491 185.426,172.491 142.188,197.3 142.188,172.491 78.436,172.491 78.436,127.369 142.188,127.369 142.188,102.564     " fill="#FFFFFF"/>
 </g>
</svg>