<svg width="300" height="300" xmlns="http://www.w3.org/2000/svg">

 <g>
  <title>background</title>
  <rect fill="none" id="canvas_background" height="402" width="582" y="-1" x="-1"/>
 </g>
 <g>
  <title>Layer 1</title>
  <path stroke="null" id="svg_2" fill="#ebe1f7" d="m151.88665,28.77729c-66.0041,0 -119.50639,53.99863 -119.50639,120.60668c0,66.60716 53.50229,120.61024 119.50639,120.61024c66.00146,0 119.51257,-54.00308 119.51257,-120.61024c0,-66.60716 -53.51111,-120.60668 -119.51257,-120.60668zm0,224.15765c-56.66988,0 -102.61195,-46.36369 -102.61195,-103.55097s45.94207,-103.55185 102.61195,-103.55185c56.67077,0 102.60578,46.36368 102.60578,103.55185s-45.93501,103.55097 -102.60578,103.55097z"/>
  <circle id="svg_3" r="104.744" fill="#eee6f7" cy="149.932" cx="151.341"/>
  <polygon id="svg_4" points="188.192440867424,128.47249150276184 188.91244208812714,128.47249150276184 188.91244208812714,128.89549565315247 227.53443610668182,151.32550358772278 188.91244208812714,173.4834930896759 188.91244208812714,173.5874969959259 188.7154358625412,173.5874969959259 145.4774445295334,198.3965027332306 145.4774445295334,173.5874969959259 81.72545325756073,173.5874969959259 81.72545325756073,128.46548771858215 145.4774445295334,128.46548771858215 145.4774445295334,103.66048741340637 " fill="#FFFFFF"/>
 </g>
</svg>